<?xml version="1.0" standalone="no"?>
<!DOCTYPE svg PUBLIC "-//W3C//DTD SVG 20010904//EN"
 "http://www.w3.org/TR/2001/REC-SVG-20010904/DTD/svg10.dtd">
<svg version="1.0" xmlns="http://www.w3.org/2000/svg"
 width="512.000000pt" height="512.000000pt" viewBox="0 0 512.000000 512.000000"
 preserveAspectRatio="xMidYMid meet">
<metadata>
Created by potrace 1.16, written by Peter Selinger 2001-2019
</metadata>
<g transform="translate(0.000000,512.000000) scale(0.100000,-0.100000)"
fill="#000000" stroke="none">
<path d="M590 4510 l0 -129 33 -5 c17 -3 67 -10 110 -16 105 -16 137 -30 186
-86 81 -93 82 -105 91 -1314 7 -992 12 -1171 40 -1325 23 -129 51 -252 59
-270 6 -11 17 -45 26 -76 9 -32 24 -75 35 -96 10 -22 22 -51 25 -66 4 -15 11
-27 15 -27 5 0 11 -8 14 -18 6 -19 64 -112 93 -150 41 -53 143 -150 214 -204
67 -51 212 -128 239 -128 6 0 10 -4 10 -8 0 -17 189 -67 382 -102 95 -17 155
-20 399 -20 265 0 299 2 426 25 198 37 294 66 434 136 68 34 126 64 129 68 3
4 30 26 60 48 61 44 154 137 194 193 41 57 123 206 142 257 10 26 21 50 25 53
4 3 15 41 24 85 10 44 21 85 26 90 4 6 17 64 29 130 12 66 26 143 32 170 5 29
13 520 18 1165 5 662 13 1135 19 1165 36 183 41 196 96 243 41 36 106 57 224
72 47 5 88 16 93 22 4 7 8 66 8 131 l0 117 -920 0 -920 0 0 -123 0 -122 73
-12 c136 -22 177 -40 238 -102 48 -48 60 -68 82 -136 14 -44 31 -123 37 -175
14 -118 15 -1993 1 -2036 -5 -16 -12 -98 -15 -182 -4 -84 -11 -161 -15 -170
-5 -9 -14 -59 -21 -111 -6 -52 -17 -109 -25 -125 -8 -17 -18 -49 -24 -71 -6
-22 -22 -57 -36 -77 -14 -20 -25 -41 -25 -45 0 -15 -60 -72 -113 -107 -66 -43
-139 -65 -248 -73 -134 -9 -295 21 -351 66 -68 55 -91 80 -127 139 -23 38 -41
74 -41 80 0 7 -6 23 -14 35 -8 12 -22 58 -31 102 -9 44 -20 98 -25 120 -5 22
-14 114 -21 205 -7 91 -16 168 -21 171 -5 3 -6 199 -3 435 4 358 7 1158 5
1572 -1 56 4 137 10 180 29 210 92 273 304 304 l86 12 0 123 0 123 -895 0
-895 0 0 -130z"/>
</g>
</svg>
